<svg width="40" height="25" viewBox="0 0 40 25" fill="none" xmlns="http://www.w3.org/2000/svg">
<path d="M36.6667 3.33333H25V0H36.6667V3.33333ZM39.5 20C38.8333 22.1667 36.1667 25 31 25C25.8333 25 21.6667 22.1667 21.6667 15.5C21.6667 9 25.5 5.66667 30.8333 5.66667C36 5.66667 39.1667 8.66667 39.8333 13C40 13.8333 40 15 40 16.6667H26.6667C26.8333 22 32.5 22.1667 34.3333 20H39.5ZM26.6667 13.3333H35C34.8333 10.8333 33.1667 9.66667 30.8333 9.66667C28.5 9.66667 27.1667 10.8333 26.6667 13.3333ZM10.8333 25H0V0H11.6667C20.8333 0.166667 21 9 16.1667 11.5C21.8333 13.6667 22 25 10.8333 25ZM5 10H11C15.1667 10 15.8333 5 10.5 5H5V10ZM10.6667 15H5V20H10.5C15.6667 20 15.3333 15 10.6667 15Z" fill="#89375F"/>
</svg>
