<svg width="25" height="308" viewBox="0 0 25 308" fill="none" xmlns="http://www.w3.org/2000/svg">
<rect width="20" height="20" transform="translate(3 118)" fill="#89375F"/>
<path d="M21.2992 129.433V135.582H17.7342V129.844C17.7342 128.403 17.2184 127.419 15.9284 127.419C14.9434 127.419 14.3567 128.083 14.0992 128.723C14.005 128.953 13.9809 129.272 13.9809 129.593V135.582H10.4142C10.4142 135.582 10.4625 125.865 10.4142 124.858H13.9809V126.378L13.9575 126.413H13.9809V126.378C14.4542 125.648 15.3 124.606 17.1942 124.606C19.54 124.606 21.2992 126.139 21.2992 129.433ZM6.68419 119.688C5.46502 119.688 4.66669 120.488 4.66669 121.541C4.66669 122.57 5.44169 123.394 6.63752 123.394H6.66085C7.90502 123.394 8.67752 122.57 8.67752 121.541C8.65585 120.488 7.90585 119.688 6.68502 119.688H6.68419ZM4.87835 135.582H8.44335V124.858H4.87835V135.582Z" fill="#FFE9F5"/>
<path d="M25 59H0V79H25V59ZM22.5 64L12.5 70.25L2.5 64V61.5L12.5 67.75L22.5 61.5V64Z" fill="#89375F"/>
<path d="M14.2278 5.4053C16.589 5.4053 17.5961 6.41234 17.5961 8.77331H19.8416C19.8416 5.1527 17.8487 3.15997 14.2278 3.15997V5.4053ZM18.0699 11.516C17.8541 11.3199 17.5706 11.2153 17.2792 11.2244C16.9878 11.2334 16.7113 11.3552 16.5081 11.5643L13.8214 14.3272C13.1747 14.2037 11.8745 13.7984 10.5362 12.4635C9.19789 11.1242 8.79258 9.82076 8.67245 9.1786L11.4333 6.49093C11.6426 6.28787 11.7647 6.01135 11.7737 5.71988C11.7827 5.42842 11.6779 5.14489 11.4816 4.92929L7.33301 0.36789C7.13657 0.151615 6.86356 0.0204285 6.57195 0.00219121C6.28035 -0.016046 5.99312 0.0801029 5.77126 0.270218L3.3349 2.3595C3.14079 2.5543 3.02493 2.81357 3.0093 3.08812C2.99246 3.36878 2.67135 10.0172 7.82702 15.1748C12.3248 19.6711 17.9587 20 19.5103 20C19.7371 20 19.8764 19.9933 19.9134 19.991C20.1879 19.9757 20.4471 19.8593 20.641 19.6643L22.7293 17.227C22.9195 17.0053 23.0159 16.7182 22.9979 16.4266C22.9798 16.135 22.8488 15.8619 22.6327 15.6654L18.0699 11.516Z" fill="#89375F"/>
<g clip-path="url(#clip0_1_586)">
<path d="M13 178.801C15.6719 178.801 15.9883 178.812 17.0391 178.859C18.0156 178.902 18.543 179.066 18.8945 179.203C19.3594 179.383 19.6953 179.602 20.043 179.949C20.3945 180.301 20.6094 180.633 20.7891 181.098C20.9258 181.449 21.0898 181.98 21.1328 182.953C21.1797 184.008 21.1914 184.324 21.1914 186.992C21.1914 189.664 21.1797 189.98 21.1328 191.031C21.0898 192.008 20.9258 192.535 20.7891 192.887C20.6094 193.352 20.3906 193.688 20.043 194.035C19.6914 194.387 19.3594 194.602 18.8945 194.781C18.543 194.918 18.0117 195.082 17.0391 195.125C15.9844 195.172 15.668 195.184 13 195.184C10.3281 195.184 10.0117 195.172 8.96094 195.125C7.98438 195.082 7.45703 194.918 7.10547 194.781C6.64063 194.602 6.30469 194.383 5.95703 194.035C5.60547 193.684 5.39063 193.352 5.21094 192.887C5.07422 192.535 4.91016 192.004 4.86719 191.031C4.82031 189.977 4.80859 189.66 4.80859 186.992C4.80859 184.32 4.82031 184.004 4.86719 182.953C4.91016 181.977 5.07422 181.449 5.21094 181.098C5.39063 180.633 5.60938 180.297 5.95703 179.949C6.30859 179.598 6.64063 179.383 7.10547 179.203C7.45703 179.066 7.98828 178.902 8.96094 178.859C10.0117 178.812 10.3281 178.801 13 178.801ZM13 177C10.2852 177 9.94531 177.012 8.87891 177.059C7.81641 177.105 7.08594 177.277 6.45313 177.523C5.79297 177.781 5.23438 178.121 4.67969 178.68C4.12109 179.234 3.78125 179.793 3.52344 180.449C3.27734 181.086 3.10547 181.812 3.05859 182.875C3.01172 183.945 3 184.285 3 187C3 189.715 3.01172 190.055 3.05859 191.121C3.10547 192.184 3.27734 192.914 3.52344 193.547C3.78125 194.207 4.12109 194.766 4.67969 195.32C5.23438 195.875 5.79297 196.219 6.44922 196.473C7.08594 196.719 7.8125 196.891 8.875 196.938C9.94141 196.984 10.2813 196.996 12.9961 196.996C15.7109 196.996 16.0508 196.984 17.1172 196.938C18.1797 196.891 18.9102 196.719 19.543 196.473C20.1992 196.219 20.7578 195.875 21.3125 195.32C21.8672 194.766 22.2109 194.207 22.4648 193.551C22.7109 192.914 22.8828 192.188 22.9297 191.125C22.9766 190.059 22.9883 189.719 22.9883 187.004C22.9883 184.289 22.9766 183.949 22.9297 182.883C22.8828 181.82 22.7109 181.09 22.4648 180.457C22.2188 179.793 21.8789 179.234 21.3203 178.68C20.7656 178.125 20.207 177.781 19.5508 177.527C18.9141 177.281 18.1875 177.109 17.125 177.063C16.0547 177.012 15.7148 177 13 177Z" fill="#89375F"/>
<path d="M13 181.863C10.1641 181.863 7.86328 184.164 7.86328 187C7.86328 189.836 10.1641 192.137 13 192.137C15.8359 192.137 18.1367 189.836 18.1367 187C18.1367 184.164 15.8359 181.863 13 181.863ZM13 190.332C11.1602 190.332 9.66797 188.84 9.66797 187C9.66797 185.16 11.1602 183.668 13 183.668C14.8398 183.668 16.332 185.16 16.332 187C16.332 188.84 14.8398 190.332 13 190.332Z" fill="#89375F"/>
<path d="M19.5391 181.66C19.5391 182.324 19 182.859 18.3398 182.859C17.6758 182.859 17.1406 182.32 17.1406 181.66C17.1406 180.996 17.6797 180.461 18.3398 180.461C19 180.461 19.5391 181 19.5391 181.66Z" fill="#89375F"/>
</g>
<path d="M23 245.856C23 248.506 22.556 250.655 22.0081 250.655C21.4602 250.655 21.0164 248.506 21.0164 245.856C21.0164 243.206 21.4604 241.058 22.0081 241.058C22.5558 241.058 23 243.206 23 245.856Z" fill="#89375F"/>
<path d="M20.469 245.856C20.469 248.814 19.2063 251.213 17.6487 251.213C16.091 251.213 14.8283 248.814 14.8283 245.856C14.8283 242.899 16.0908 240.5 17.6485 240.5C19.2061 240.5 20.4688 242.898 20.4688 245.856" fill="#89375F"/>
<path d="M14.2812 245.856C14.2812 248.999 11.7558 251.546 8.6407 251.546C5.52561 251.546 3 248.998 3 245.856C3 242.715 5.52542 240.167 8.6407 240.167C11.756 240.167 14.2812 242.714 14.2812 245.856Z" fill="#89375F"/>
<path d="M22.3333 296.667H16.5V295H22.3333V296.667ZM23.75 305C23.4167 306.083 22.0833 307.5 19.5 307.5C16.9167 307.5 14.8333 306.083 14.8333 302.75C14.8333 299.5 16.75 297.833 19.4167 297.833C22 297.833 23.5833 299.333 23.9167 301.5C24 301.917 24 302.5 24 303.333H17.3333C17.4167 306 20.25 306.083 21.1667 305H23.75ZM17.3333 301.667H21.5C21.4167 300.417 20.5833 299.833 19.4167 299.833C18.25 299.833 17.5833 300.417 17.3333 301.667ZM9.41667 307.5H4V295H9.83333C14.4167 295.083 14.5 299.5 12.0833 300.75C14.9167 301.833 15 307.5 9.41667 307.5ZM6.5 300H9.5C11.5833 300 11.9167 297.5 9.25 297.5H6.5V300ZM9.33333 302.5H6.5V305H9.25C11.8333 305 11.6667 302.5 9.33333 302.5Z" fill="#89375F"/>
<defs>
<clipPath id="clip0_1_586">
<rect width="20" height="20" fill="white" transform="translate(3 177)"/>
</clipPath>
</defs>
</svg>
