<svg width="22" height="22" viewBox="0 0 22 22" fill="none" xmlns="http://www.w3.org/2000/svg">
<path d="M18.9269 11.3644L12.7394 17.5519C12.6416 17.643 12.5123 17.6925 12.3788 17.6902C12.2452 17.6878 12.1177 17.6337 12.0233 17.5392C11.9288 17.4448 11.8747 17.3173 11.8723 17.1837C11.87 17.0502 11.9195 16.9209 12.0106 16.8231L17.3173 11.5156H3.4375C3.30075 11.5156 3.1696 11.4613 3.0729 11.3646C2.9762 11.2679 2.92188 11.1368 2.92188 11C2.92188 10.8632 2.9762 10.7321 3.0729 10.6354C3.1696 10.5387 3.30075 10.4844 3.4375 10.4844H17.3173L12.0106 5.17688C11.9195 5.07913 11.87 4.94985 11.8723 4.81627C11.8747 4.68268 11.9288 4.55523 12.0233 4.46076C12.1177 4.36629 12.2452 4.31218 12.3788 4.30982C12.5123 4.30746 12.6416 4.35705 12.7394 4.44813L18.9269 10.6356C19.0234 10.7323 19.0777 10.8634 19.0777 11C19.0777 11.1366 19.0234 11.2677 18.9269 11.3644Z" fill="#101010"/>
</svg>
