<svg width="40" height="38" viewBox="0 0 40 38" fill="none" xmlns="http://www.w3.org/2000/svg">
<rect width="40" height="38" fill="#89375F"/>
<path d="M36.5983 21.7217V33.4051H29.4683V22.5038C29.4683 19.7647 28.4367 17.8963 25.8567 17.8963C23.8867 17.8963 22.7133 19.1567 22.1983 20.3743C22.01 20.8097 21.9617 21.4161 21.9617 22.0257V33.4051H14.8283C14.8283 33.4051 14.925 14.9434 14.8283 13.0292H21.9617V15.9172L21.915 15.9837H21.9617V15.9172C22.9083 14.5318 24.6 12.551 28.3883 12.551C33.08 12.551 36.5983 15.4643 36.5983 21.7217ZM7.36833 3.20776C4.92999 3.20776 3.33333 4.72776 3.33333 6.72751C3.33333 8.68293 4.88333 10.2488 7.27499 10.2488H7.32166C9.81 10.2488 11.355 8.68293 11.355 6.72751C11.3117 4.72776 9.81166 3.20776 7.36999 3.20776H7.36833ZM3.75666 33.4051H10.8867V13.0292H3.75666V33.4051Z" fill="#FFE9F5"/>
</svg>
