<svg width="132" height="41" viewBox="0 0 132 41" fill="none" xmlns="http://www.w3.org/2000/svg">
<path d="M20.3684 18.305C30.5693 18.305 40.8362 17.5995 50.9958 17.0543C61.7788 16.4754 72.5357 17.4743 83.2955 17.5236C94.6795 17.5758 106.023 18.2892 117.42 18.3416C119.939 18.3532 138.675 19.108 129.48 13.6772C126.683 12.0252 119.858 11.8194 116.701 11.484C112.6 11.0481 108.427 11.1972 104.313 10.8316C93.3002 9.85285 82.1762 8.90185 71.0907 9.00086C59.7327 9.1024 48.4498 8.91905 37.1304 9.699C34.1088 9.90711 16.3241 14.2267 14.749 12.4617C14.4184 12.0915 22.8065 4.63368 22.9652 3.31533C23.6532 -2.40016 18.0568 0.599467 15.1964 2.54767C11.1143 5.328 5.93823 9.24195 2.40248 12.6641C-0.692943 15.6601 -0.866316 17.558 2.28537 20.8247C5.7023 24.3662 10.0369 27.137 13.684 30.4513C15.9263 32.489 22.3823 41.1468 24.9297 40.9981C33.3474 40.5068 14.7259 20.9089 12.7641 18.5823C15.0149 17.8141 18.0027 18.305 20.3684 18.305Z" fill="#893760"/>
</svg>
