<svg width="132" height="41" viewBox="0 0 132 41" fill="none" xmlns="http://www.w3.org/2000/svg">
<path d="M111.632 18.305C101.431 18.305 91.1638 17.5995 81.0042 17.0543C70.2212 16.4754 59.4643 17.4743 48.7045 17.5236C37.3205 17.5758 25.9772 18.2892 14.5797 18.3416C12.0614 18.3532 -6.67489 19.108 2.52026 13.6772C5.31735 12.0252 12.1424 11.8194 15.2985 11.484C19.4005 11.0481 23.5735 11.1972 27.687 10.8316C38.6998 9.85285 49.8238 8.90185 60.9093 9.00086C72.2673 9.1024 83.5502 8.91905 94.8696 9.699C97.8912 9.90711 115.676 14.2267 117.251 12.4617C117.582 12.0915 109.193 4.63368 109.035 3.31533C108.347 -2.40016 113.943 0.599467 116.804 2.54767C120.886 5.328 126.062 9.24195 129.598 12.6641C132.693 15.6601 132.866 17.558 129.715 20.8247C126.298 24.3662 121.963 27.137 118.316 30.4513C116.074 32.489 109.618 41.1468 107.07 40.9981C98.6526 40.5068 117.274 20.9089 119.236 18.5823C116.985 17.8141 113.997 18.305 111.632 18.305Z" fill="#89375F"/>
</svg>
