<svg width="38" height="38" viewBox="0 0 38 38" fill="none" xmlns="http://www.w3.org/2000/svg">
<path d="M21.0533 10.6319C25.4807 10.6319 27.3692 12.5203 27.3692 16.9477H31.5797C31.5797 10.1582 27.8429 6.42131 21.0533 6.42131V10.6319ZM28.2576 22.0909C27.8531 21.7232 27.3215 21.5271 26.7751 21.544C26.2287 21.5609 25.7102 21.7894 25.3292 22.1814L20.2912 27.3625C19.0786 27.1309 16.6407 26.3709 14.1312 23.8677C11.6217 21.3561 10.8617 18.9119 10.6364 17.7077L15.8133 12.6677C16.2058 12.2869 16.4347 11.7683 16.4516 11.2218C16.4685 10.6752 16.272 10.1435 15.9038 9.73922L8.12485 1.18549C7.75652 0.77992 7.24459 0.533914 6.6978 0.499715C6.151 0.465515 5.61241 0.645818 5.19641 1.00233L0.627966 4.92025C0.263987 5.28554 0.0467403 5.77173 0.0174358 6.28657C-0.0141433 6.81289 -0.616252 19.2803 9.05117 28.952C17.4849 37.3836 28.0492 38.0004 30.9587 38.0004C31.3839 38.0004 31.645 37.9878 31.7145 37.9836C32.2292 37.9548 32.7151 37.7366 33.0787 37.371L36.9945 32.8004C37.3513 32.3847 37.5319 31.8462 37.4981 31.2995C37.4643 30.7527 37.2187 30.2406 36.8134 29.872L28.2576 22.0909Z" fill="#89375F"/>
</svg>
